<svg xmlns="http://www.w3.org/2000/svg" version="1.1" xmlns:xlink="http://www.w3.org/1999/xlink" xmlns:svgjs="http://svgjs.com/svgjs" width="70 " height="70" x="0" y="0" viewBox="0 0 512 512" style="enable-background:new 0 0 512 512" xml:space="preserve" class="">
                    <g>
                        <path d="m256 0c141.385 0 256 114.615 256 256s-114.615 256-256 256-256-114.615-256-256 114.615-256 256-256zm162.5 355.241v-190.263l-95.137 95.131zm-304.676 3.876h284.358l-86.908-86.908-33.123 33.118a8.563 8.563 0 0 1 -6.05 2.5h-32.2a8.553 8.553 0 0 1 -6.051-2.5l-33.122-33.118-86.908 86.908zm-20.324-194.145v190.274l95.137-95.137zm312.906-12.089h-300.806l137.844 137.844h25.117z" fill-rule="evenodd" fill="rgb(32 32 32)" data-original="#000000" class=""></path>
                    </g>
                </svg>