<?xml version="1.0" encoding="utf-8"?>
<svg viewBox="0 0 500 500" width="500" height="500" xmlns="http://www.w3.org/2000/svg">
  <defs>
    <linearGradient gradientUnits="userSpaceOnUse" x1="250.000002" y1="0" x2="250.000002" y2="283.872681" id="gradient-0" gradientTransform="matrix(0.954388, 0, 0, 0.954388, 11.745644, 87.781868)">
      <stop offset="0" style="stop-color: rgba(61, 64, 91, 1)"/>
      <stop offset="1" style="stop-color: rgba(20, 21, 30, 0);"/>
    </linearGradient>
  </defs>
  <rect style="stroke-width: 6px; fill: rgb(129, 178, 154);" x="0" y="0" width="500" height="500" rx="58.608772" ry="58.608772"/>
  <rect style="stroke-width: 6px; fill: url(#gradient-0);" width="477.193909" height="270.924622" rx="58.608772" ry="58.608772" y="87.781868" x="11.745645"/>
  <rect style="stroke-width: 6px; fill: rgb(61, 64, 91);" width="477.193909" height="270.924622" rx="58.608772" ry="58.608772" x="11.745645" y="11.129808"/>
  <path d="M 56.85898 441.683587 L 56.85898 58.316394 L 160.760202 58.316394 C 188.641453 58.316394 208.935227 65.105188 221.641526 78.682776 C 234.347825 92.260364 240.700975 114.659754 240.700975 145.880946 L 240.700975 162.653261 C 240.700975 180.659901 237.469945 195.253993 231.007884 206.435536 C 224.545823 217.617079 214.707517 224.950429 201.492966 228.435586 C 218.773533 232.792031 230.354417 242.993374 236.235618 259.039614 C 242.116819 275.085854 245.05742 294.653555 245.05742 317.742716 C 245.05742 342.574454 242.733982 364.284074 238.087107 382.871574 C 233.440232 401.459074 225.017771 415.907951 212.819724 426.218206 C 200.621677 436.52846 183.268503 441.683587 160.760202 441.683587 L 56.85898 441.683587 Z M 131.78984 202.732558 L 147.473044 202.732558 C 154.588571 202.732558 159.162839 199.973476 161.195847 194.455312 C 163.228854 188.937148 164.245358 182.329872 164.245358 174.633485 L 164.245358 136.078944 C 164.245358 123.735682 158.799801 117.564051 147.908688 117.564051 L 131.78984 117.564051 L 131.78984 202.732558 Z M 139.41362 374.158683 C 159.308054 374.158683 169.255271 364.719718 169.255271 345.841788 L 169.255271 297.920889 C 169.255271 287.029775 167.621604 278.425796 164.35427 272.10895 C 161.086936 265.792104 154.951609 262.633682 145.948288 262.633682 L 131.78984 262.633682 L 131.78984 373.723039 C 134.984567 374.013468 137.525827 374.158683 139.41362 374.158683 Z M 353.833897 445.168743 C 318.83712 445.168743 293.60604 436.455852 278.140659 419.030071 C 262.675278 401.604289 254.942587 373.868253 254.942587 335.821964 L 254.942587 298.356534 L 330.744737 298.356534 L 330.744737 346.277433 C 330.744737 355.135538 332.087974 362.069547 334.774449 367.07946 C 337.460924 372.089372 342.144102 374.594328 348.823985 374.594328 C 355.794298 374.594328 360.622691 372.56132 363.309166 368.495304 C 365.995641 364.429288 367.338878 357.749406 367.338878 348.455656 C 367.338878 336.693253 366.177159 326.854947 363.853722 318.940738 C 361.530284 311.026529 357.500572 303.475357 351.764586 296.287222 C 346.028599 289.099087 338.078086 280.71293 327.913047 271.12875 L 293.497129 238.45541 C 267.794101 214.20453 254.942587 186.468495 254.942587 155.247303 C 254.942587 122.573963 262.530063 97.669617 277.705014 80.534265 C 292.879966 63.398913 314.843712 54.831238 343.596251 54.831238 C 378.738244 54.831238 403.678893 64.197595 418.4182 82.93031 C 433.157507 101.663025 440.52716 130.125135 440.52716 168.316639 L 362.546788 168.316639 L 362.546788 141.960145 C 362.546788 136.73241 361.058336 132.666394 358.081432 129.762098 C 355.104527 126.857801 351.074815 125.405653 345.992296 125.405653 C 339.893272 125.405653 335.427915 127.111927 332.596226 130.524476 C 329.764537 133.937024 328.348692 138.329773 328.348692 143.702723 C 328.348692 149.075672 329.80084 154.884266 332.705137 161.128505 C 335.609434 167.372743 341.345421 174.560877 349.913096 182.692909 L 394.131017 225.168252 C 402.989122 233.590712 411.121154 242.485121 418.527111 251.851479 C 425.933068 261.217837 431.886877 272.10895 436.388537 284.52482 C 440.890197 296.940689 443.141027 312.079337 443.141027 329.940763 C 443.141027 365.954044 436.497448 394.162028 423.21029 414.564714 C 409.923131 434.9674 386.797667 445.168743 353.833897 445.168743 Z" style="fill: rgb(244, 241, 222); white-space: pre;"/>
</svg>